<?xml version="1.0" standalone="no"?>
<svg xmlns:xlink="http://www.w3.org/1999/xlink" id="wave" style="transform:rotate(180deg); transition: 0.3s" viewBox="0 0 1440 100" version="1.1" xmlns="http://www.w3.org/2000/svg"><defs><linearGradient id="sw-gradient-0" x1="0" x2="0" y1="1" y2="0"><stop stop-color="rgba(255, 249, 234, 1)" offset="0%"/><stop stop-color="rgba(255, 249, 234, 1)" offset="100%"/></linearGradient></defs><path style="transform:translate(0, 0px); opacity:1" fill="url(#sw-gradient-0)" d="M0,0L48,11.7C96,23,192,47,288,61.7C384,77,480,83,576,76.7C672,70,768,50,864,35C960,20,1056,10,1152,20C1248,30,1344,60,1440,60C1536,60,1632,30,1728,20C1824,10,1920,20,2016,35C2112,50,2208,70,2304,66.7C2400,63,2496,37,2592,26.7C2688,17,2784,23,2880,25C2976,27,3072,23,3168,26.7C3264,30,3360,40,3456,38.3C3552,37,3648,23,3744,28.3C3840,33,3936,57,4032,60C4128,63,4224,47,4320,48.3C4416,50,4512,70,4608,65C4704,60,4800,30,4896,30C4992,30,5088,60,5184,65C5280,70,5376,50,5472,48.3C5568,47,5664,63,5760,58.3C5856,53,5952,27,6048,15C6144,3,6240,7,6336,18.3C6432,30,6528,50,6624,60C6720,70,6816,70,6864,70L6912,70L6912,100L6864,100C6816,100,6720,100,6624,100C6528,100,6432,100,6336,100C6240,100,6144,100,6048,100C5952,100,5856,100,5760,100C5664,100,5568,100,5472,100C5376,100,5280,100,5184,100C5088,100,4992,100,4896,100C4800,100,4704,100,4608,100C4512,100,4416,100,4320,100C4224,100,4128,100,4032,100C3936,100,3840,100,3744,100C3648,100,3552,100,3456,100C3360,100,3264,100,3168,100C3072,100,2976,100,2880,100C2784,100,2688,100,2592,100C2496,100,2400,100,2304,100C2208,100,2112,100,2016,100C1920,100,1824,100,1728,100C1632,100,1536,100,1440,100C1344,100,1248,100,1152,100C1056,100,960,100,864,100C768,100,672,100,576,100C480,100,384,100,288,100C192,100,96,100,48,100L0,100Z"/></svg>